<?xml version="1.0" encoding="UTF-8" standalone="no"?>
<svg width="88px" height="40px" viewBox="0 0 88 40" version="1.1" xmlns="http://www.w3.org/2000/svg" xmlns:xlink="http://www.w3.org/1999/xlink">
    <g id="Page-1" stroke="none" stroke-width="1" fill="none" fill-rule="evenodd">
        <g id="Artboard" transform="translate(-40.000000, -1221.000000)" fill="#FFFFFF">
            <path d="M40.3873594,1230.2345 L40.3873594,1259.83179 L61.9302238,1259.83179 L61.9302238,1254.31389 L46.2855015,1254.31389 L46.2855015,1230.2345 L40.3873594,1230.2345 Z M77.8462001,1260.36041 C70.3198462,1260.36041 65.0982921,1256.19568 65.0982921,1248.01405 L65.0982921,1230.23505 L71.0177495,1230.23505 L71.0177495,1247.71839 C71.0177495,1252.55971 73.7873597,1254.71599 77.8462001,1254.71599 C81.9050405,1254.71599 84.6746507,1252.55971 84.6746507,1247.71839 L84.6746507,1230.23505 L90.5941081,1230.23505 L90.5941081,1248.01405 C90.5941081,1256.19568 85.3718664,1260.36041 77.8462001,1260.36041 Z M76.7547894,1224.61112 C76.7547894,1226.59826 75.1905234,1228.12058 73.2027024,1228.12058 C71.2155689,1228.12058 69.6939335,1226.59826 69.6939335,1224.61112 C69.6939335,1222.62399 71.2155689,1221.05904 73.2027024,1221.05904 C75.1905234,1221.05904 76.7547894,1222.62399 76.7547894,1224.61112 Z M85.9984666,1224.55013 C85.9984666,1226.53727 84.4348883,1228.05959 82.4470672,1228.05959 C80.4599338,1228.05959 78.9376108,1226.53727 78.9376108,1224.55013 C78.9376108,1222.563 80.4599338,1220.99805 82.4470672,1220.99805 C84.4348883,1220.99805 85.9984666,1222.563 85.9984666,1224.55013 Z M102.866686,1247.65479 L102.866686,1259.832 L96.9685434,1259.832 L96.9685434,1230.23471 L102.866686,1230.23471 L102.866686,1242.22146 L102.907253,1242.22146 L112.695089,1230.23471 L120.094926,1230.23471 L107.685312,1244.67409 L121.024547,1259.832 L113.371677,1259.832 L102.843995,1247.65479 L102.866686,1247.65479 Z M126.673301,1233.25165 L126.673301,1230.75638 L125.644667,1233.25165 L125.53534,1233.25165 L124.507394,1230.75638 L124.507394,1233.25165 L124.123031,1233.25165 L124.123031,1230.2345 L124.712296,1230.2345 L125.590347,1232.4286 L126.467711,1230.2345 L127.057663,1230.2345 L127.057663,1233.25165 L126.673301,1233.25165 Z M122.778794,1230.59205 L122.778794,1233.25165 L122.394432,1233.25165 L122.394432,1230.59205 L121.545259,1230.59205 L121.545259,1230.2345 L123.629342,1230.2345 L123.629342,1230.59205 L122.778794,1230.59205 Z" id="Combined-Shape"></path>
        </g>
    </g>
</svg>
